<?xml version="1.0" encoding="UTF-8" standalone="no"?>
<!-- Created with Inkscape (http://www.inkscape.org/) -->

<svg
   width="2048"
   height="3072"
   viewBox="0 0 541.86665 812.8"
   version="1.1"
   id="svg1"
   xml:space="preserve"
   xmlns:xlink="http://www.w3.org/1999/xlink"
   xmlns="http://www.w3.org/2000/svg"
   xmlns:svg="http://www.w3.org/2000/svg"><defs
     id="defs1"><linearGradient
       id="linearGradient119"><stop
         style="stop-color:#fffafd;stop-opacity:1;"
         offset="0"
         id="stop119" /><stop
         style="stop-color:#e8e8e8;stop-opacity:1;"
         offset="1"
         id="stop120" /></linearGradient><pattern
       xlink:href="#pattern100"
       preserveAspectRatio="xMidYMid"
       id="pattern101"
       patternTransform="matrix(1.6970563,1.6970563,-1.6970563,1.6970563,-165.63611,124.12257)" /><pattern
       xlink:href="#pattern87-7-5"
       preserveAspectRatio="xMidYMid"
       id="pattern100"
       patternTransform="matrix(1.6970563,1.6970563,-1.6970563,1.6970563,79.368058,406.16841)" /><pattern
       xlink:href="#pattern28"
       preserveAspectRatio="xMidYMid"
       id="pattern29"
       patternTransform="matrix(1.6,0,0,1.6,-291.47705,893.87205)" /><pattern
       xlink:href="#pattern8350"
       id="pattern28"
       patternTransform="matrix(1.6,0,0,1.6,125.79375,602.77812)"
       x="0"
       y="0"
       preserveAspectRatio="xMidYMid" /><pattern
       patternUnits="userSpaceOnUse"
       width="5"
       height="5"
       style="fill:#000000"
       patternTransform="translate(125,600) scale(2)"
       id="pattern8350"><path
         style="opacity:1;stroke:none;stroke-width:4.8561;stroke-linecap:square;paint-order:stroke markers fill;stop-color:#000000"
         d="M 0,0 V 5 H 5 Z"
         id="path8348" /></pattern><linearGradient
       id="swatch31"><stop
         style="stop-color:#000000;stop-opacity:1;"
         offset="0"
         id="stop31" /></linearGradient><pattern
       xlink:href="#pattern31-6"
       preserveAspectRatio="xMidYMid"
       id="pattern87-7"
       patternTransform="matrix(1.6970563,1.6970563,-1.6970563,1.6970563,11.641661,51.329152)"
       x="0"
       y="0" /><pattern
       xlink:href="#Strips1_1-7"
       preserveAspectRatio="xMidYMid"
       id="pattern31-6"
       patternTransform="matrix(5.6568542,5.6568542,-5.6568542,5.6568542,155.2836,-43.778749)"
       x="0"
       y="0" /><pattern
       patternUnits="userSpaceOnUse"
       width="2"
       height="10"
       patternTransform="translate(0,0) scale(2,2)"
       preserveAspectRatio="xMidYMid"
       id="Strips1_1-7"
       style="fill:#ff4ca9"><rect
         style="stroke:none"
         x="0"
         y="-0.5"
         width="1"
         height="11"
         id="rect134-3" /></pattern><pattern
       xlink:href="#pattern31-6-9"
       preserveAspectRatio="xMidYMid"
       id="pattern87-7-5"
       patternTransform="matrix(1.6970563,1.6970563,-1.6970563,1.6970563,-21.695893,650.6104)"
       x="0"
       y="0" /><pattern
       xlink:href="#Strips1_1-7-8"
       preserveAspectRatio="xMidYMid"
       id="pattern31-6-9"
       patternTransform="matrix(5.6568542,5.6568542,-5.6568542,5.6568542,155.2836,-43.778749)"
       x="0"
       y="0" /><pattern
       patternUnits="userSpaceOnUse"
       width="2"
       height="10"
       patternTransform="translate(0,0) scale(2,2)"
       preserveAspectRatio="xMidYMid"
       id="Strips1_1-7-8"
       style="fill:#000000"><rect
         style="stroke:none"
         x="0"
         y="-0.5"
         width="1"
         height="11"
         id="rect134-3-4" /></pattern><linearGradient
       xlink:href="#linearGradient119"
       id="linearGradient120"
       x1="-26.458332"
       y1="215.37083"
       x2="-26.458332"
       y2="833.4375"
       gradientUnits="userSpaceOnUse"
       gradientTransform="matrix(0.92252013,0,0,0.94931994,24.408996,20.09407)" /></defs><g
     id="layer2"><path
       id="rect119"
       style="opacity:1;fill:url(#linearGradient120);stroke-width:0.247993;paint-order:stroke markers fill"
       d="M 6.5202521e-4,1.3179063e-4 H 541.86596 V 812.79993 H 6.5202521e-4 Z" /></g><g
     id="layer1"
     style="display:inline"><path
       id="rect113"
       style="opacity:0.99702;fill:none;stroke:#ff4ca9;stroke-width:0.423333;paint-order:stroke markers fill"
       d="m 424.92029,585.06384 h 8.59895 v 1.02527 h -8.59895 z" /><path
       id="rect23"
       style="opacity:0.99702;fill:#ff4ca9;stroke-width:0.471079;paint-order:stroke markers fill"
       d="m 307.44583,272.52084 h 75.14166 v 17.99167 h -75.14166 z" /><path
       id="rect10"
       style="opacity:0.99702;paint-order:stroke markers fill"
       d="m 388.40833,43.391666 h 96.30833 v 35.98333 h -96.30833 z" /><path
       id="rect3"
       style="opacity:0.99702;fill:#ff4ca9;paint-order:stroke markers fill"
       d="M 67.733337,120.65 H 223.30833 v 39.15833 H 67.733337 Z" /><path
       id="rect3-4"
       style="opacity:0.99702;fill:#ff4ca9;stroke-width:0.242558;paint-order:stroke markers fill"
       d="m 224.89583,320.14584 h 42.33333 v 8.46667 h -42.33333 z" /><path
       id="rect3-6"
       style="opacity:0.99702;fill:#ff4ca9;stroke-width:1.65236;paint-order:stroke markers fill"
       d="m 270.93332,702.99792 h 209.55 v 79.375 h -209.55 z" /><path
       id="rect3-2"
       style="opacity:0.99702;fill:#ff4ca9;stroke-width:0.517395;paint-order:stroke markers fill"
       d="m 383.64584,427.03751 h 110.06665 v 14.81666 H 383.64584 Z" /><path
       id="rect1-9"
       style="fill:url(#pattern28);fill-opacity:1;stroke-width:0.265"
       d="m 442.69839,364.24313 h 66.73969 v 20.18954 h -66.73969 z" /><path
       id="rect50-5"
       style="stroke-width:0.264999;paint-order:stroke markers fill"
       d="M 141.65904,21.065374 V -13.758332 H 88.900039 v 52.759046 h 34.823701 z" /><path
       id="rect87-6"
       style="fill:url(#pattern87-7);stroke-width:0.264583"
       d="m 298.18546,61.647926 h 138.1125 v 30.95625 h -138.1125 z" /><path
       id="rect87-6-0"
       style="fill:url(#pattern87-7-5);stroke-width:0.264583"
       d="m 270.93332,686.29614 h 97.64889 v 16.70227 h -97.64889 z" /><g
       id="g7"
       transform="matrix(0.83062431,0,0,0.83062431,48.400127,-138.14747)"><path
         id="path6"
         style="fill:#000000;stroke:#000000;stroke-width:0.264999;paint-order:stroke markers fill"
         d="M 234.97843,332.22575 H 139.9372 L 267.91078,460.19933 395.88436,332.22575 h -95.04123 l -32.93235,32.93235 z" /><path
         id="path7"
         style="fill:#000000;stroke:#000000;stroke-width:0.264999;paint-order:stroke markers fill"
         d="M 234.97843,460.19439 H 139.9372 L 267.91078,588.16797 395.88436,460.19439 h -95.04123 l -32.93235,32.93235 z" /></g><g
       id="g9"
       transform="matrix(0.83062431,0,0,0.83062431,48.400127,266.20794)"
       style="opacity:0.16;fill:none;stroke-width:1.20391;stroke-dasharray:none"><path
         id="path8"
         style="fill:none;stroke:#000000;stroke-width:1.20391;stroke-dasharray:none;paint-order:stroke markers fill"
         d="M 234.97843,332.22575 H 139.9372 L 267.91078,460.19933 395.88436,332.22575 h -95.04123 l -32.93235,32.93235 z" /><path
         id="path9"
         style="fill:none;stroke:#000000;stroke-width:1.20391;stroke-dasharray:none;paint-order:stroke markers fill"
         d="M 234.97843,460.19439 H 139.9372 L 267.91078,588.16797 395.88436,460.19439 h -95.04123 l -32.93235,32.93235 z" /></g><path
       d="m 247.4593,384.99907 v -5.76709 h 1.0139 v 0.34726 h -0.61392 v 5.07256 h 0.61392 v 0.34727 z m 7.27502,-0.91158 h -1.11621 v -0.37827 h 1.0914 q 0.59532,0 0.99529,-0.23254 0.39998,-0.23565 0.60152,-0.66973 0.20153,-0.43718 0.20153,-1.04179 0,-0.59532 -0.19533,-1.0263 -0.19534,-0.43098 -0.57671,-0.66042 -0.38137,-0.23255 -0.94568,-0.23255 h -1.19063 v -0.37827 h 1.21543 q 0.66353,0 1.13482,0.27595 0.47129,0.27596 0.72244,0.79065 0.25424,0.5147 0.25424,1.23094 0,0.72863 -0.25735,1.24953 -0.25734,0.5178 -0.74724,0.79685 -0.48989,0.27595 -1.18752,0.27595 z m -0.93328,-4.61987 v 4.61987 h -0.41858 v -4.61987 z m 5.20176,4.61987 v -4.61987 h 2.93315 v 0.37827 h -2.51457 v 1.68982 h 2.31613 v 0.37827 h -2.31613 v 1.79524 h 2.51457 v 0.37827 z m 6.37997,0.0713 q -0.49609,0 -0.86196,-0.17364 -0.36587,-0.17673 -0.57051,-0.49609 -0.20154,-0.32246 -0.21084,-0.75654 h 0.42788 q 0.009,0.31936 0.15503,0.555 0.14573,0.23255 0.41548,0.35967 0.27285,0.12712 0.64492,0.12712 0.35657,0 0.62322,-0.11162 0.26665,-0.11472 0.41238,-0.31936 0.14883,-0.20464 0.14883,-0.47749 0,-0.21084 -0.0961,-0.36897 -0.0961,-0.15813 -0.30696,-0.27905 -0.20774,-0.12092 -0.55811,-0.21084 l -0.51779,-0.13953 q -0.65423,-0.17363 -0.95188,-0.45888 -0.29766,-0.28836 -0.29766,-0.73484 0,-0.38137 0.18914,-0.66663 0.19223,-0.28835 0.5333,-0.44958 0.34416,-0.16123 0.79685,-0.16123 0.45268,0 0.78755,0.17053 0.33796,0.16743 0.5271,0.47439 0.19223,0.30696 0.20774,0.71934 h -0.41548 q -0.0279,-0.44649 -0.32867,-0.71004 -0.29765,-0.26665 -0.79064,-0.26665 -0.31626,0 -0.56431,0.11162 -0.24495,0.11162 -0.38757,0.31006 -0.13953,0.19534 -0.13953,0.44959 0,0.19533 0.0961,0.34726 0.0992,0.15193 0.30695,0.26665 0.20774,0.11472 0.53951,0.20464 l 0.524,0.14263 q 0.32556,0.0868 0.5612,0.20464 0.23875,0.11472 0.39378,0.26665 0.15813,0.14882 0.23564,0.34106 0.0775,0.18914 0.0775,0.42168 0,0.38447 -0.20154,0.68213 -0.20154,0.29455 -0.56431,0.46199 -0.35967,0.16433 -0.84026,0.16433 z m 5.52111,-0.006 q -0.61391,0 -1.079,-0.30076 -0.46509,-0.30076 -0.72554,-0.83716 -0.25735,-0.5364 -0.25735,-1.23403 0,-0.70384 0.25735,-1.23714 0.26045,-0.5364 0.72554,-0.83715 0.46509,-0.30386 1.079,-0.30386 0.37828,0 0.69454,0.11782 0.31626,0.11782 0.555,0.33176 0.24185,0.21084 0.39688,0.4899 0.15502,0.27905 0.21394,0.60461 h -0.43099 q -0.0527,-0.24805 -0.17363,-0.45579 -0.12092,-0.21084 -0.30696,-0.36586 -0.18293,-0.15813 -0.42168,-0.24185 -0.23874,-0.0868 -0.5271,-0.0868 -0.48059,0 -0.85266,0.24495 -0.36897,0.24185 -0.57981,0.68833 -0.21084,0.44338 -0.21084,1.0511 0,0.60771 0.21084,1.0511 0.21084,0.44338 0.57981,0.68523 0.37207,0.24184 0.85266,0.24184 0.28836,0 0.5271,-0.0837 0.23875,-0.0868 0.42168,-0.24185 0.18294,-0.15503 0.30386,-0.36277 0.12402,-0.21084 0.17984,-0.45578 h 0.42788 q -0.0558,0.31936 -0.21394,0.59841 -0.15503,0.27905 -0.39688,0.49299 -0.23874,0.21084 -0.555,0.32866 -0.31626,0.11783 -0.69454,0.11783 z m 3.92432,4.93488 v -4.61987 h 2.93315 v 0.37827 h -2.51458 v 1.68982 h 2.31614 v 0.37827 h -2.31614 v 1.79524 h 2.51458 v 0.37827 z m 4.95991,0 v -4.61987 h 0.47128 l 2.1208,3.175 q 0.0806,0.11782 0.17984,0.27595 0.10232,0.15813 0.21394,0.33487 0.11162,0.17673 0.21394,0.35036 l -0.0527,0.0744 q -0.003,-0.16433 -0.009,-0.36277 -0.006,-0.20154 -0.009,-0.38758 -0.003,-0.18603 -0.003,-0.30385 v -3.1564 h 0.42168 v 4.61987 h -0.47749 l -1.97818,-2.94865 q -0.0837,-0.12713 -0.20154,-0.30696 -0.11472,-0.17984 -0.25735,-0.40308 -0.13952,-0.22634 -0.30075,-0.48369 l 0.0589,-0.0992 q 0.0124,0.29146 0.0155,0.5364 0.006,0.24185 0.009,0.43099 0.003,0.18913 0.003,0.32246 v 2.95175 z m 5.5118,-4.2416 v -0.37827 h 3.50056 v 0.37827 h -1.53789 v 4.2416 H 286.844 v -4.2416 z m 8.09357,5.15318 v -0.34727 h 0.61392 v -5.07256 h -0.61392 v -0.34726 h 1.01389 v 5.76709 z"
       id="text1"
       style="font-weight:300;font-size:6.35px;line-height:0px;font-family:Inter;-inkscape-font-specification:'Inter Light';font-variant-caps:all-small-caps;font-variant-numeric:ordinal;letter-spacing:1.32292px;word-spacing:0px;opacity:0.99702;stroke:#000000;paint-order:stroke markers fill"
       aria-label="[ DESCENT ]" /><path
       style="opacity:0.99702;fill:none;fill-opacity:1;stroke:#000000;stroke-width:1;paint-order:stroke markers fill"
       d="M 102.38517,35.546845 V 84.1899 c -18.334683,18.33469 -20.018481,20.01849 -20.018481,20.01849 v 16.44042"
       id="path10" /><g
       id="g12"
       transform="matrix(0.07993654,0,0,0.07993654,59.54664,549.17895)"><path
         id="path11"
         style="fill:#000000;stroke:#000000;stroke-width:0.264999;paint-order:stroke markers fill"
         d="M 234.97843,332.22575 H 139.9372 L 267.91078,460.19933 395.88436,332.22575 h -95.04123 l -32.93235,32.93235 z" /><path
         id="path12"
         style="fill:#000000;stroke:#000000;stroke-width:0.264999;paint-order:stroke markers fill"
         d="M 234.97843,460.19439 H 139.9372 L 267.91078,588.16797 395.88436,460.19439 h -95.04123 l -32.93235,32.93235 z" /></g><path
       id="rect12"
       style="opacity:0.99702;fill:#ff4ca9;stroke-width:0.298923;paint-order:stroke markers fill"
       d="m 33.337498,389.46667 h 57.149986 v 9.525 H 33.337498 Z" /><path
       style="opacity:0.99702;fill:none;fill-opacity:1;stroke:#000000;stroke-width:1;paint-order:stroke markers fill"
       d="M 410.63333,45.508333 C 392.1125,26.9875 392.1125,26.9875 392.1125,26.9875 H 365.125 l -9.26042,-9.260417 v -50.006249"
       id="path13" /><path
       style="opacity:0.99702;fill:none;fill-opacity:1;stroke:#000000;stroke-width:1;paint-order:stroke markers fill"
       d="M 444.49999,47.095833 V 20.6375 L 458.52291,6.6145832 V -20.6375"
       id="path14" /><path
       style="opacity:0.99702;fill:none;fill-opacity:1;stroke:#000000;stroke-width:1;paint-order:stroke markers fill"
       d="M -16.645384,249.76666 C 7.9608659,274.37291 7.9608659,274.37291 7.9608659,274.37291 V 312.7375"
       id="path15" /><path
       style="opacity:0.99702;fill:none;fill-opacity:1;stroke:#000000;stroke-width:1;paint-order:stroke markers fill"
       d="m 417.58189,194.57221 c 0,49.39141 0,49.39141 0,49.39141 l 15.34129,15.34127 v 23.57316"
       id="path17" /><path
       style="opacity:0.99702;fill:none;fill-opacity:1;stroke:#000000;stroke-width:1;paint-order:stroke markers fill"
       d="m 141.96819,338.28747 c 0,71.09369 0,71.09369 0,71.09369 l -18.33469,18.33468 v 18.3347 l 6.92228,6.92229 v 45.46253"
       id="path18" /><path
       style="opacity:0.99702;fill:none;fill-opacity:1;stroke:#000000;stroke-width:1;paint-order:stroke markers fill"
       d="m 79.374999,699.55832 c 0,47.625 0,47.625 0,47.625 l 13.229167,13.22917 v 18.52083 l 8.731254,8.73125 v 30.42709"
       id="path19" /><path
       style="opacity:0.99702;fill:none;fill-opacity:1;stroke:#000000;stroke-width:1;paint-order:stroke markers fill"
       d="M 518.58333,711.19999 506.92673,699.5434 V 543.73472 l -7.96937,-7.96935 V 517.9165 l 15.84672,-15.84672 v -37.28646"
       id="path20" /><path
       d="m 384.64535,417.78192 v 8.25553 h 8.25561 v -8.25553 z"
       style="opacity:1;fill:none;stroke:#000000;stroke-width:2;stroke-dasharray:none;stroke-opacity:1;paint-order:stroke markers fill"
       id="path21" /><path
       d="m 261.79556,773.23587 v 8.25553 h 8.25561 v -8.25553 z"
       style="opacity:1;fill:none;stroke:#000000;stroke-width:1.76345;stroke-dasharray:none;stroke-opacity:1;paint-order:stroke markers fill"
       id="path22" /><path
       id="rect22"
       style="opacity:0.99702;fill:#000000;fill-opacity:1;stroke:none;stroke-width:1;paint-order:stroke markers fill"
       d="M 168.29049,508.61185 V 498.14324 H 50.815502 v 19.05 H 159.7091 Z" /><path
       id="path28"
       style="fill:url(#pattern29);fill-opacity:1;stroke-width:0.265"
       d="m 26.613192,642.63107 h 89.377418 v 30.47942 H 26.613192 Z" /><path
       d="m -57.549717,-241.77599 q 0,-0.43408 0.303857,-0.74414 0.310059,-0.30385 0.750342,-0.30385 0.440283,0 0.744141,0.30385 0.310058,0.31006 0.310058,0.74414 0,0.44029 -0.310058,0.74414 -0.303858,0.31006 -0.744141,0.31006 -0.440283,0 -0.750342,-0.31006 -0.303857,-0.30385 -0.303857,-0.74414 z m 1.085205,5.36262 0.42168,-0.84336 6.870898,3.39825 -0.42168,0.84336 z m -1.122412,1.27745 q 0,-1.15962 0.576709,-2.00298 0.58291,-0.83716 1.649512,-1.28985 1.066601,-0.44648 2.536279,-0.44648 1.475879,0 2.54248,0.44648 1.066602,0.45269 1.649512,1.28985 0.58291,0.83716 0.58291,2.00298 0,1.15961 -0.58291,1.99677 -0.576709,0.84336 -1.649512,1.28985 -1.066601,0.45268 -2.54248,0.45268 -1.469678,0 -2.536279,-0.45268 -1.066602,-0.44649 -1.649512,-1.28985 -0.576709,-0.83716 -0.576709,-1.99677 z m 1.525488,0 q 0,0.60151 0.390674,1.03559 0.390674,0.43408 1.116211,0.66973 0.725537,0.23564 1.730127,0.23564 1.010791,0 1.736328,-0.23564 0.725537,-0.23565 1.116211,-0.66973 0.396875,-0.43408 0.396875,-1.03559 0,-0.60152 -0.396875,-1.0418 -0.390674,-0.43408 -1.116211,-0.66973 -0.725537,-0.22944 -1.736328,-0.22944 -1.00459,0 -1.730127,0.22944 -0.725537,0.23565 -1.116211,0.66973 -0.390674,0.44028 -0.390674,1.0418 z m -0.403076,8.30544 0.42168,-0.84336 6.870898,3.39824 -0.42168,0.84336 z m -1.122412,1.27744 q 0,-1.15962 0.576709,-2.00298 0.58291,-0.83716 1.649512,-1.28985 1.066601,-0.44648 2.536279,-0.44648 1.475879,0 2.54248,0.44648 1.066602,0.45269 1.649512,1.28985 0.58291,0.83716 0.58291,2.00298 0,1.15962 -0.58291,1.99677 -0.576709,0.84336 -1.649512,1.28985 -1.066601,0.45268 -2.54248,0.45268 -1.469678,0 -2.536279,-0.45268 -1.066602,-0.44649 -1.649512,-1.28985 -0.576709,-0.83715 -0.576709,-1.99677 z m 1.525488,0 q 0,0.60151 0.390674,1.03559 0.390674,0.43408 1.116211,0.66973 0.725537,0.23564 1.730127,0.23564 1.010791,0 1.736328,-0.23564 0.725537,-0.23565 1.116211,-0.66973 0.396875,-0.43408 0.396875,-1.03559 0,-0.60152 -0.396875,-1.0418 -0.390674,-0.43408 -1.116211,-0.66973 -0.725537,-0.22944 -1.736328,-0.22944 -1.00459,0 -1.730127,0.22944 -0.725537,0.23565 -1.116211,0.66973 -0.390674,0.44028 -0.390674,1.0418 z m -0.403076,8.30544 0.42168,-0.84336 6.870898,3.39824 -0.42168,0.84336 z m -1.122412,1.27744 q 0,-1.15962 0.576709,-2.00298 0.58291,-0.83716 1.649512,-1.28985 1.066601,-0.44648 2.536279,-0.44648 1.475879,0 2.54248,0.44648 1.066602,0.45269 1.649512,1.28985 0.58291,0.83716 0.58291,2.00298 0,1.15962 -0.58291,1.99677 -0.576709,0.84336 -1.649512,1.28985 -1.066601,0.45268 -2.54248,0.45268 -1.469678,0 -2.536279,-0.45268 -1.066602,-0.44649 -1.649512,-1.28985 -0.576709,-0.83715 -0.576709,-1.99677 z m 1.525488,0 q 0,0.60151 0.390674,1.03559 0.390674,0.43408 1.116211,0.66973 0.725537,0.23564 1.730127,0.23564 1.010791,0 1.736328,-0.23564 0.725537,-0.23565 1.116211,-0.66973 0.396875,-0.43408 0.396875,-1.03559 0,-0.60152 -0.396875,-1.0418 -0.390674,-0.43408 -1.116211,-0.66973 -0.725537,-0.22944 -1.736328,-0.22944 -1.00459,0 -1.730127,0.22944 -0.725537,0.23565 -1.116211,0.66973 -0.390674,0.44028 -0.390674,1.0418 z m -0.403076,8.30544 0.42168,-0.84336 6.870898,3.39824 -0.42168,0.84336 z m -1.122412,1.27744 q 0,-1.15962 0.576709,-2.00298 0.58291,-0.83716 1.649512,-1.28984 1.066601,-0.44649 2.536279,-0.44649 1.475879,0 2.54248,0.44649 1.066602,0.45268 1.649512,1.28984 0.58291,0.83716 0.58291,2.00298 0,1.15962 -0.58291,1.99678 -0.576709,0.84336 -1.649512,1.28984 -1.066601,0.45269 -2.54248,0.45269 -1.469678,0 -2.536279,-0.45269 -1.066602,-0.44648 -1.649512,-1.28984 -0.576709,-0.83716 -0.576709,-1.99678 z m 1.525488,0 q 0,0.60151 0.390674,1.03559 0.390674,0.43409 1.116211,0.66973 0.725537,0.23565 1.730127,0.23565 1.010791,0 1.736328,-0.23565 0.725537,-0.23564 1.116211,-0.66973 0.396875,-0.43408 0.396875,-1.03559 0,-0.60151 -0.396875,-1.0418 -0.390674,-0.43408 -1.116211,-0.66972 -0.725537,-0.22945 -1.736328,-0.22945 -1.00459,0 -1.730127,0.22945 -0.725537,0.23564 -1.116211,0.66972 -0.390674,0.44029 -0.390674,1.0418 z"
       id="text29"
       style="font-size:12.7px;line-height:0px;font-family:Inter;-inkscape-font-specification:'Inter, @opsz=32,wght=700';font-variant-caps:all-small-caps;font-variant-numeric:ordinal slashed-zero;font-variation-settings:'opsz' 32, 'wght' 700;letter-spacing:1.32292px;word-spacing:0px;writing-mode:tb-rl;opacity:0.99702;paint-order:stroke markers fill"
       transform="scale(-1)"
       aria-label=".0000" /><path
       d="m -61.512706,235.19823 h 1.63711 v 7.50962 h -1.63711 v -2.79673 h -7.602636 v -1.90996 h 7.602636 z m -7.751464,11.23983 q 0,-0.98599 0.427881,-1.73633 0.42788,-0.75034 1.196826,-1.17202 0.768945,-0.41548 1.792138,-0.41548 1.029395,0 1.79834,0.41548 0.768946,0.42168 1.196826,1.17202 0.434082,0.75034 0.434082,1.73633 0,0.99838 -0.434082,1.74253 -0.42788,0.75034 -1.196826,1.16582 -0.768945,0.42168 -1.79834,0.42168 -1.023193,0 -1.792138,-0.42168 -0.768946,-0.41548 -1.196826,-1.16582 -0.427881,-0.74415 -0.427881,-1.74253 z m 1.48208,0 q 0,0.44648 0.229443,0.78134 0.235645,0.33487 0.669727,0.5209 0.434082,0.18604 1.035595,0.18604 0.613916,0 1.047998,-0.18604 0.434082,-0.18603 0.663526,-0.5209 0.235644,-0.33486 0.235644,-0.78134 0,-0.44029 -0.235644,-0.77515 -0.229444,-0.33486 -0.663526,-0.5209 -0.434082,-0.18603 -1.047998,-0.18603 -0.607714,0 -1.041796,0.18603 -0.427881,0.18604 -0.663526,0.5209 -0.229443,0.33486 -0.229443,0.77515 z m -1.333252,4.74843 3.764111,2.6417 -0.812353,-0.0372 3.596679,-2.44327 v 1.99678 l -0.917773,0.57671 q -0.415479,0.24805 -0.806152,0.47129 -0.390674,0.22324 -0.781348,0.44648 v -0.58291 q 0.390674,0.23565 0.781348,0.45889 0.390673,0.22324 0.806152,0.48369 l 0.917773,0.58911 v 1.96577 l -3.596679,-2.50527 0.812353,0.0372 -3.764111,2.57348 v -2.00297 l 1.00459,-0.65733 q 0.409277,-0.24184 0.781347,-0.46509 0.378272,-0.22324 0.756543,-0.45268 v 0.50849 q -0.378271,-0.23564 -0.756543,-0.45888 -0.37207,-0.22324 -0.781347,-0.47749 l -1.00459,-0.66973 z"
       id="text30"
       style="font-size:12.7px;line-height:0px;font-family:Inter;-inkscape-font-specification:'Inter, @opsz=32,wght=700';font-variant-caps:all-small-caps;font-variant-numeric:ordinal slashed-zero;font-variation-settings:'opsz' 32, 'wght' 700;letter-spacing:1.32292px;word-spacing:0px;writing-mode:tb-rl;opacity:0.99702;paint-order:stroke markers fill"
       transform="scale(-1,1)"
       aria-label="Tox" /><path
       style="font-variation-settings:'opsz' 32, 'wght' 700;opacity:0.99702;fill:none;fill-opacity:1;stroke:#000000;stroke-width:1;paint-order:stroke markers fill"
       d="m 72.029137,231.42868 v 50.88811"
       id="path31" /><path
       style="font-variation-settings:'opsz' 32, 'wght' 700;opacity:0.99702;fill:none;fill-opacity:1;stroke:#000000;stroke-width:1;stroke-dasharray:none;paint-order:stroke markers fill"
       d="m 72.029137,230.6756 c 0,-0.96461 0,-0.96461 0,-0.96461"
       id="path33" /><path
       style="font-variation-settings:'opsz' 32, 'wght' 700;opacity:0.99702;fill:none;fill-opacity:1;stroke:#000000;stroke-width:1;stroke-linejoin:bevel;stroke-dasharray:none;paint-order:stroke markers fill"
       d="m 72.029137,228.93927 c 0,-2.94898 0,-2.94898 0,-2.94898"
       id="path34" /><path
       style="font-variation-settings:'opsz' 32, 'wght' 700;opacity:0.99702;fill:none;fill-opacity:1;stroke:#000000;stroke-width:1;stroke-dasharray:none;paint-order:stroke markers fill"
       d="m 71.029736,226.95514 c 0,-0.96461 0,-0.96461 0,-0.96461"
       id="path35" /><path
       id="rect52"
       style="opacity:0.99702;fill:#ff4ca9;stroke-width:0.278169;paint-order:stroke markers fill"
       transform="scale(1,-1)"
       d="m 253.78114,-473.48865 h 45.73758 v 10.3064 h -45.73758 z" /><path
       d="m 239.72282,465.6857 -2.99723,-2.99723 2.99723,-2.9931 0.67386,0.66559 -1.83968,1.83968 h 18.97973 v 0.97979 H 238.557 l 1.83968,1.83554 z m 29.87284,-2.59626 v 1.13454 h -1.13453 v -1.13454 z m 0,-1.2192 v 0.6858 h -2.3114 v 0.5334 h 0.6096 v 1.13454 h -1.03294 v 0.5588 h 2.73474 v 1.27846 h 0.6096 v -1.27846 h 1.60867 v -0.5588 h -1.60867 v -1.13454 h 1.36313 v -0.5334 h -1.36313 v -0.6858 z m -5.12234,-3.23426 v 7.42526 h 0.56727 v -6.84953 h 1.10913 c -0.1778,0.57573 -0.4318,1.3462 -0.67733,1.96427 0.6096,0.6604 0.77047,1.22766 0.77047,1.69333 0,0.254 -0.0508,0.4826 -0.1778,0.57573 -0.0677,0.0508 -0.16087,0.0677 -0.27094,0.0762 -0.13546,0.008 -0.29633,0 -0.49106,-0.008 0.0931,0.16086 0.1524,0.4064 0.16086,0.5588 0.18627,0.008 0.39794,0 0.56727,-0.0169 0.1778,-0.0169 0.32173,-0.0677 0.44027,-0.1524 0.23706,-0.16086 0.33866,-0.51646 0.33866,-0.97366 0,-0.52494 -0.14393,-1.12607 -0.762,-1.8288 0.28787,-0.67734 0.60114,-1.54094 0.84667,-2.24367 l -0.41487,-0.24553 -0.0931,0.0254 z m 6.00287,0.889 c -0.24553,0.44026 -0.5842,0.82126 -0.98213,1.15146 -0.381,-0.31326 -0.69427,-0.6858 -0.92287,-1.08373 l 0.0508,-0.0677 z m -1.71026,-1.26154 c -0.3302,0.6858 -0.96521,1.4986 -1.90501,2.09127 0.13547,0.0847 0.3302,0.2794 0.41487,0.4064 0.34713,-0.23707 0.65193,-0.49107 0.92287,-0.762 0.2286,0.37253 0.51647,0.71967 0.8382,1.016 -0.65193,0.44027 -1.41394,0.75353 -2.1844,0.93133 0.11853,0.127 0.26246,0.3556 0.3302,0.508 0.82126,-0.22013 1.6256,-0.56726 2.31987,-1.0668 0.6096,0.44027 1.32926,0.75354 2.1336,0.9398 0.0847,-0.16086 0.254,-0.39793 0.381,-0.51646 -0.77047,-0.14394 -1.46474,-0.41487 -2.04894,-0.7874 0.56727,-0.49954 1.03294,-1.10914 1.32927,-1.8542 l -0.39793,-0.18627 -0.11007,0.0254 h -1.78647 c 0.14394,-0.21167 0.26247,-0.4318 0.37254,-0.64347 z m 5.27685,0.635 v 0.635 h 3.26814 v 6.51934 h 0.66886 v -4.48734 c 0.97367,0.52494 2.1082,1.22767 2.70087,1.7018 l 0.44873,-0.57573 c -0.67733,-0.51647 -2.02353,-1.27847 -3.03106,-1.76953 l -0.11854,0.13546 v -1.524 h 3.6068 v -0.635 z m 28.10108,6.78726 -0.678,-0.66973 1.84382,-1.83554 h -18.97973 v -0.97979 h 18.97973 l -1.84382,-1.83968 0.678,-0.66559 2.99723,2.9931 z"
       id="text52"
       style="font-size:8.46667px;line-height:0px;font-family:Inter;-inkscape-font-specification:'Inter, @opsz=32,wght=700';font-variant-caps:all-small-caps;font-variant-numeric:ordinal slashed-zero;font-variation-settings:'opsz' 32, 'wght' 700;letter-spacing:1.32292px;word-spacing:0px;opacity:0.99702;paint-order:stroke markers fill"
       aria-label="&lt;---降下---&gt;" /><g
       id="g55"
       transform="matrix(0.14394358,0,0,0.14394358,429.49347,643.81172)"><path
         id="path54"
         style="fill:#000000;stroke:#000000;stroke-width:0.264999;paint-order:stroke markers fill"
         d="M 234.97843,332.22575 H 139.9372 L 267.91078,460.19933 395.88436,332.22575 h -95.04123 l -32.93235,32.93235 z" /><path
         id="path55"
         style="fill:#000000;stroke:#000000;stroke-width:0.264999;paint-order:stroke markers fill"
         d="M 234.97843,460.19439 H 139.9372 L 267.91078,588.16797 395.88436,460.19439 h -95.04123 l -32.93235,32.93235 z" /></g><g
       id="g57"
       transform="matrix(0.14394358,0,0,0.14394358,429.49347,606.9173)"><path
         id="path56"
         style="fill:#000000;stroke:#000000;stroke-width:0.264999;paint-order:stroke markers fill"
         d="M 234.97843,332.22575 H 139.9372 L 267.91078,460.19933 395.88436,332.22575 h -95.04123 l -32.93235,32.93235 z" /><path
         id="path57"
         style="fill:#000000;stroke:#000000;stroke-width:0.264999;paint-order:stroke markers fill"
         d="M 234.97843,460.19439 H 139.9372 L 267.91078,588.16797 395.88436,460.19439 h -95.04123 l -32.93235,32.93235 z" /></g><path
       id="rect57"
       style="opacity:1;fill:none;stroke:#000000;paint-order:stroke markers fill"
       d="m 516.51532,82.256432 h 9.9157 v 2.432152 h -9.9157 z" /><path
       id="rect58"
       style="opacity:1;fill:none;stroke:#000000;paint-order:stroke markers fill"
       d="m 516.51532,86.489769 h 9.9157 v 2.432153 h -9.9157 z" /><path
       id="rect59"
       style="opacity:1;fill:none;stroke:#000000;paint-order:stroke markers fill"
       d="m 516.51532,90.855385 h 9.9157 v 2.432153 h -9.9157 z" /><path
       id="rect61"
       style="opacity:1;fill:none;stroke:#000000;paint-order:stroke markers fill"
       d="m 516.51532,111.75747 h 9.9157 v 2.43215 h -9.9157 z" /><path
       id="rect62"
       style="opacity:1;stroke:#000000;paint-order:stroke markers fill"
       d="m 516.51532,120.7533 h 9.9157 v 2.43216 h -9.9157 z" /><path
       id="rect63"
       style="opacity:1;stroke:#000000;paint-order:stroke markers fill"
       d="m 516.51532,103.29081 h 9.9157 v 2.43215 h -9.9157 z" /><path
       id="rect88"
       style="opacity:1;fill:none;stroke:#000000;paint-order:stroke markers fill"
       d="m 12.776154,401.65027 h 9.915699 v 2.43215 h -9.915699 z" /><path
       id="rect89"
       style="opacity:1;fill:none;stroke:#000000;paint-order:stroke markers fill"
       d="m 12.776154,406.2179 h 9.915699 v 2.43215 h -9.915699 z" /><path
       id="rect90"
       style="opacity:1;fill:none;stroke:#000000;paint-order:stroke markers fill"
       d="m 12.776154,384.43811 h 9.915699 v 2.43215 h -9.915699 z" /><path
       id="rect91"
       style="opacity:1;fill:#ff4ca9;stroke:#ff4ca9;paint-order:stroke markers fill"
       d="m 12.776154,374.60019 h 9.915699 v 2.43215 h -9.915699 z" /><path
       id="rect92"
       style="opacity:1;stroke:#000000;paint-order:stroke markers fill"
       d="m 12.776154,370.23456 h 9.915699 v 2.43215 h -9.915699 z" /><path
       id="rect93"
       style="opacity:1;stroke:#000000;paint-order:stroke markers fill"
       d="m 12.776154,435.96527 h 9.915699 v 2.43215 h -9.915699 z" /><path
       id="rect94"
       style="opacity:1;stroke:#000000;paint-order:stroke markers fill"
       d="m 12.776154,414.76166 h 9.915699 v 2.43215 h -9.915699 z" /><path
       id="rect96"
       style="opacity:1;fill:none;stroke:#000000;paint-order:stroke markers fill"
       d="m 12.776154,441.01639 h 9.915699 v 2.43215 h -9.915699 z" /><path
       id="rect97"
       style="opacity:1;fill:none;stroke:#000000;paint-order:stroke markers fill"
       d="m 12.776154,454.11261 h 9.915699 v 2.43215 h -9.915699 z" /><path
       id="rect98"
       style="opacity:1;fill:none;stroke:#000000;paint-order:stroke markers fill"
       d="m 12.776154,498.63971 h 9.915699 v 2.43215 h -9.915699 z" /><path
       id="rect95"
       style="opacity:1;fill:none;stroke:#000000;paint-order:stroke markers fill"
       d="m 12.776154,504.25235 h 9.915699 v 2.43215 h -9.915699 z" /><path
       id="rect99"
       style="opacity:1;stroke:#000000;paint-order:stroke markers fill"
       d="m 12.776154,527.63873 h 9.915699 v 2.43216 h -9.915699 z" /><path
       id="rect100"
       style="fill:url(#pattern100);stroke-width:0.264583"
       d="m 371.99725,441.85413 h 14.56973 v 40.25018 h -14.56973 z" /><path
       id="rect101"
       style="fill:url(#pattern101);stroke-width:0.264583"
       d="m 126.99309,159.8083 h 47.11348 v 16.04081 h -47.11348 z" /><path
       id="rect103"
       style="opacity:1;fill:#ff4ca9;stroke:#ff4ca9;paint-order:stroke markers fill"
       d="m 12.776154,348.27414 h 9.915699 v 2.43215 h -9.915699 z" /><path
       id="rect102"
       style="opacity:1;fill:#ff4ca9;stroke:#ff4ca9;paint-order:stroke markers fill"
       d="m 12.776154,334.11893 h 9.915699 v 2.43215 h -9.915699 z" /><path
       id="rect105"
       style="opacity:1;fill:none;stroke:#000000;paint-order:stroke markers fill"
       d="m 12.776154,343.82455 h 9.915699 v 2.43216 h -9.915699 z" /><path
       id="rect104"
       style="opacity:1;fill:none;stroke:#ff4ca9;paint-order:stroke markers fill"
       d="m 12.776154,319.21832 h 9.915699 v 2.43216 h -9.915699 z" /><path
       id="rect106"
       style="opacity:1;stroke:#000000;paint-order:stroke markers fill"
       d="m 516.51532,146.13411 h 9.9157 v 2.43215 h -9.9157 z" /><path
       id="rect107"
       style="opacity:1;fill:none;stroke:#ff4ca9;paint-order:stroke markers fill"
       d="m 516.51532,140.56912 h 9.9157 v 2.43216 h -9.9157 z" /><path
       id="rect109"
       style="opacity:1;fill:none;stroke:#000000;paint-order:stroke markers fill"
       d="m 516.51532,111.75747 h 9.9157 v 2.43215 h -9.9157 z" /><path
       id="rect108"
       style="opacity:1;fill:none;stroke:#000000;paint-order:stroke markers fill"
       d="m 516.51532,151.42027 h 9.9157 v 2.43216 h -9.9157 z" /><path
       id="rect110"
       style="opacity:1;fill:#ff4ca9;stroke:#ff4ca9;paint-order:stroke markers fill"
       d="m 516.51532,167.46222 h 9.9157 v 2.43215 h -9.9157 z" /><path
       d="m 492.40843,260.62744 v 8.25553 h 8.25561 v -8.25553 z"
       style="opacity:1;fill:none;stroke:#000000;stroke-width:2;stroke-dasharray:none;stroke-opacity:1;paint-order:stroke markers fill"
       id="path112" /><path
       d="m 492.40843,273.34947 v 8.25553 h 8.25561 v -8.25553 z"
       style="opacity:1;fill:none;stroke:#000000;stroke-width:2;stroke-dasharray:none;stroke-opacity:1;paint-order:stroke markers fill"
       id="path113" /><path
       d="m 492.40843,317.50239 v 8.25553 h 8.25561 v -8.25553 z"
       style="opacity:1;fill:none;stroke:#000000;stroke-width:2;stroke-dasharray:none;stroke-opacity:1;paint-order:stroke markers fill"
       id="path111" /><path
       style="font-size:4.83301px;line-height:0px;font-family:Inter;-inkscape-font-specification:Inter;font-variant-caps:all-small-caps;font-variant-numeric:ordinal slashed-zero;letter-spacing:0.167813px;word-spacing:0px;opacity:0.99702;fill:#ff4ca9;stroke-width:0.253701;paint-order:stroke markers fill"
       d="m 429.71897,590.18335 0.58053,-3.5162 h 0.33982 l -0.57581,3.5162 z m -1.59999,-0.97699 0.0566,-0.33982 h 2.62418 l -0.0566,0.33982 z m 0.36814,0.97699 0.5758,-3.5162 h 0.33983 l -0.57581,3.5162 z m -0.16047,-2.19468 0.0566,-0.34454 h 2.61946 l -0.0519,0.34454 z m 3.2026,2.19468 v -3.5162 h 2.2112 v 0.37757 h -1.78642 v 1.14926 h 1.64482 v 0.37758 h -1.64482 v 1.61179 z m 2.84626,0 v -3.5162 h 2.2112 v 0.37757 h -1.78642 v 1.14926 h 1.64483 v 0.37758 h -1.64483 v 1.61179 z m 2.61972,-0.84955 v -0.34926 l 1.68259,-2.31739 h 0.25958 v 0.47669 h -0.15103 l -1.30973,1.80766 v 0.005 h 2.2584 v 0.37758 z m 1.79586,0.84955 v -0.95339 -0.16519 -2.39762 h 0.4059 v 3.5162 z m 3.07281,0.0566 q -0.48613,0 -0.85191,-0.23127 -0.36578,-0.23363 -0.57109,-0.64188 -0.20295,-0.41062 -0.20295,-0.93923 0,-0.53333 0.20295,-0.94159 0.20295,-0.41062 0.56873,-0.64188 0.36814,-0.23363 0.85427,-0.23363 0.2761,0 0.51681,0.0826 0.24307,0.0826 0.43422,0.24071 0.19351,0.15575 0.32094,0.37522 0.12743,0.21947 0.17699,0.49557 h -0.43422 q -0.0425,-0.19115 -0.13451,-0.33982 -0.092,-0.14867 -0.22419,-0.25014 -0.13215,-0.10384 -0.2997,-0.15576 -0.16519,-0.0519 -0.35634,-0.0519 -0.3705,0 -0.63952,0.18171 -0.26903,0.17935 -0.41534,0.50029 -0.14631,0.31858 -0.14631,0.73864 0,0.41769 0.14631,0.73628 0.14631,0.31858 0.41534,0.50029 0.26902,0.17935 0.63952,0.17935 0.19115,0 0.35634,-0.0519 0.16519,-0.0519 0.29734,-0.15339 0.13216,-0.10147 0.22419,-0.24779 0.0944,-0.14867 0.13923,-0.33982 h 0.43186 q -0.0472,0.27375 -0.17699,0.49322 -0.12743,0.21946 -0.32094,0.37521 -0.19115,0.15576 -0.43422,0.23835 -0.24071,0.0826 -0.51681,0.0826 z m 1.79612,-0.0566 1.29793,-3.5162 h 0.48141 l 1.28377,3.5162 h -0.45309 l -0.73864,-2.11916 q -0.0732,-0.21003 -0.16519,-0.47906 -0.0897,-0.27138 -0.22891,-0.71032 h 0.12271 q -0.13923,0.43894 -0.23126,0.71032 -0.0897,0.26903 -0.1652,0.47906 l -0.75987,2.11916 z m 0.6702,-0.98643 v -0.37757 h 1.72271 v 0.37757 z m 3.92945,1.04307 q -0.30443,0 -0.54041,-0.11564 -0.23599,-0.11799 -0.3823,-0.32802 -0.14395,-0.21239 -0.17699,-0.49085 h 0.41534 q 0.0496,0.25486 0.21946,0.4059 0.16991,0.15103 0.43658,0.15103 0.30442,0 0.50265,-0.17463 0.20059,-0.17463 0.2997,-0.48142 0.0991,-0.30678 0.0991,-0.69852 h -0.005 q -0.0802,0.13452 -0.21475,0.23127 -0.13215,0.0968 -0.30206,0.14867 -0.16755,0.0496 -0.35634,0.0496 -0.31622,0 -0.56637,-0.14867 -0.25015,-0.15103 -0.3941,-0.41298 -0.14395,-0.26194 -0.14395,-0.59469 0,-0.3469 0.14867,-0.6112 0.15103,-0.26431 0.41534,-0.41062 0.26666,-0.14867 0.6112,-0.14867 0.29263,0 0.51917,0.11091 0.22655,0.11092 0.3823,0.32566 0.15811,0.21239 0.23835,0.52154 0.0826,0.30914 0.0826,0.70796 0,0.44365 -0.0779,0.80471 -0.0779,0.36106 -0.23599,0.62065 -0.15811,0.25958 -0.40117,0.39881 -0.24307,0.13924 -0.57345,0.13924 z m 0.0519,-1.68023 q 0.16048,0 0.29971,-0.059 0.14159,-0.0614 0.24778,-0.16755 0.1062,-0.10855 0.16519,-0.25014 0.0614,-0.1416 0.0614,-0.30679 0,-0.22182 -0.10383,-0.39881 -0.10148,-0.17935 -0.27375,-0.28319 -0.17227,-0.10619 -0.3823,-0.10619 -0.21238,0 -0.38701,0.10619 -0.17228,0.10384 -0.27611,0.28319 -0.10147,0.17935 -0.10147,0.40353 0,0.22183 0.0991,0.39882 0.0991,0.17463 0.26903,0.27847 0.17227,0.10147 0.38229,0.10147 z"
       id="text113"
       aria-label="#FF4CA9" /><path
       style="opacity:0.99702;fill:none;fill-opacity:1;stroke:#000000;stroke-width:0.423333;stroke-linejoin:miter;stroke-dasharray:none;stroke-opacity:1;paint-order:stroke markers fill"
       d="m 400.24418,582.80257 c 49.0802,0 49.0802,0 49.0802,0 l 13.03073,13.03073"
       id="path114" /><g
       style="stroke:none"
       id="g1"
       transform="matrix(0.26458333,0,0,0.26458333,1017.3406,-41.38083)"><path
         d="m -2122.6771,459.4 h 3.7797 v 3.77966 h -3.7797 z m 3.7797,0 h 3.7796 v 3.77966 h -3.7796 z m 3.7796,0 h 3.7797 v 3.77966 h -3.7797 z m 3.7797,0 h 3.7797 v 3.77966 h -3.7797 z m 3.7797,0 h 3.7796 v 3.77966 h -3.7796 z m 3.7796,0 h 3.7797 v 3.77966 h -3.7797 z m 3.7797,0 h 3.7797 v 3.77966 h -3.7797 z m 11.339,0 h 3.7796 v 3.77966 h -3.7796 z m 7.5593,0 h 3.7797 v 3.77966 h -3.7797 z m 3.7797,0 h 3.7796 v 3.77966 h -3.7796 z m 7.5593,0 h 3.7796 v 3.77966 h -3.7796 z m 7.5593,0 h 3.7797 v 3.77966 h -3.7797 z m 7.5593,0 h 3.7797 v 3.77966 h -3.7797 z m 3.7797,0 h 3.7796 v 3.77966 h -3.7796 z m 3.7796,0 h 3.7797 v 3.77966 h -3.7797 z m 7.5594,0 h 3.7796 v 3.77966 h -3.7796 z m 3.7796,0 h 3.7797 v 3.77966 h -3.7797 z m 3.7797,0 h 3.7797 v 3.77966 h -3.7797 z m 3.7797,0 h 3.7796 v 3.77966 h -3.7796 z m 3.7796,0 h 3.7797 v 3.77966 h -3.7797 z m 3.7797,0 h 3.7796 v 3.77966 h -3.7796 z m 3.7796,0 h 3.7797 v 3.77966 h -3.7797 z m -105.8305,3.77966 h 3.7797 v 3.77966 h -3.7797 z m 22.678,0 h 3.7797 v 3.77966 h -3.7797 z m 15.1186,0 h 3.7797 v 3.77966 h -3.7797 z m 11.339,0 h 3.7797 v 3.77966 h -3.7797 z m 7.5593,0 h 3.7797 v 3.77966 h -3.7797 z m 3.7797,0 h 3.7797 v 3.77966 h -3.7797 z m 22.678,0 h 3.7796 v 3.77966 h -3.7796 z m 22.6779,0 h 3.7797 v 3.77966 h -3.7797 z m -105.8305,3.77966 h 3.7797 v 3.77966 h -3.7797 z m 7.5593,0 h 3.7797 v 3.77966 h -3.7797 z m 3.7797,0 h 3.7797 v 3.77966 h -3.7797 z m 3.7797,0 h 3.7796 v 3.77966 h -3.7796 z m 7.5593,0 h 3.7797 v 3.77966 h -3.7797 z m 7.5593,0 h 3.7797 v 3.77966 h -3.7797 z m 3.7797,0 h 3.7796 v 3.77966 h -3.7796 z m 3.7796,0 h 3.7797 v 3.77966 h -3.7797 z m 7.5594,0 h 3.7796 v 3.77966 h -3.7796 z m 7.5593,0 h 3.7796 v 3.77966 h -3.7796 z m 3.7796,0 h 3.7797 v 3.77966 h -3.7797 z m 3.7797,0 h 3.7797 v 3.77966 h -3.7797 z m 11.339,0 h 3.7796 v 3.77966 h -3.7796 z m 11.339,0 h 3.7796 v 3.77966 h -3.7796 z m 7.5593,0 h 3.7797 v 3.77966 h -3.7797 z m 3.7797,0 h 3.7796 v 3.77966 h -3.7796 z m 3.7796,0 h 3.7797 v 3.77966 h -3.7797 z m 7.5593,0 h 3.7797 v 3.77966 h -3.7797 z m -105.8305,3.77966 h 3.7797 v 3.77966 h -3.7797 z m 7.5593,0 h 3.7797 v 3.77966 h -3.7797 z m 3.7797,0 h 3.7797 v 3.77966 h -3.7797 z m 3.7797,0 h 3.7796 v 3.77966 h -3.7796 z m 7.5593,0 h 3.7797 v 3.77966 h -3.7797 z m 7.5593,0 h 3.7797 v 3.77966 h -3.7797 z m 3.7797,0 h 3.7796 v 3.77966 h -3.7796 z m 7.5593,0 h 3.7797 v 3.77966 h -3.7797 z m 7.5593,0 h 3.7797 v 3.77966 h -3.7797 z m 3.7797,0 h 3.7796 v 3.77966 h -3.7796 z m 3.7796,0 h 3.7797 v 3.77966 h -3.7797 z m 7.5594,0 h 3.7796 v 3.77966 h -3.7796 z m 11.3389,0 h 3.7797 v 3.77966 h -3.7797 z m 7.5594,0 h 3.7796 v 3.77966 h -3.7796 z m 7.5593,0 h 3.7797 v 3.77966 h -3.7797 z m 3.7797,0 h 3.7796 v 3.77966 h -3.7796 z m 3.7796,0 h 3.7797 v 3.77966 h -3.7797 z m 7.5593,0 h 3.7797 v 3.77966 h -3.7797 z m -105.8305,3.77966 h 3.7797 v 3.77967 h -3.7797 z m 7.5593,0 h 3.7797 v 3.77967 h -3.7797 z m 3.7797,0 h 3.7797 v 3.77967 h -3.7797 z m 3.7797,0 h 3.7796 v 3.77967 h -3.7796 z m 7.5593,0 h 3.7797 v 3.77967 h -3.7797 z m 7.5593,0 h 3.7797 v 3.77967 h -3.7797 z m 3.7797,0 h 3.7796 v 3.77967 h -3.7796 z m 26.4576,0 h 3.7797 v 3.77967 h -3.7797 z m 3.7797,0 h 3.7796 v 3.77967 h -3.7796 z m 3.7796,0 h 3.7797 v 3.77967 h -3.7797 z m 3.7797,0 h 3.7796 v 3.77967 h -3.7796 z m 3.7796,0 h 3.7797 v 3.77967 h -3.7797 z m 7.5594,0 h 3.7796 v 3.77967 h -3.7796 z m 7.5593,0 h 3.7797 v 3.77967 h -3.7797 z m 3.7797,0 h 3.7796 v 3.77967 h -3.7796 z m 3.7796,0 h 3.7797 v 3.77967 h -3.7797 z m 7.5593,0 h 3.7797 v 3.77967 h -3.7797 z m -105.8305,3.77967 h 3.7797 v 3.77966 h -3.7797 z m 22.678,0 h 3.7797 v 3.77966 h -3.7797 z m 7.5593,0 h 3.7797 v 3.77966 h -3.7797 z m 3.7797,0 h 3.7796 v 3.77966 h -3.7796 z m 3.7796,0 h 3.7797 v 3.77966 h -3.7797 z m 11.339,0 h 3.7797 v 3.77966 h -3.7797 z m 7.5593,0 h 3.7797 v 3.77966 h -3.7797 z m 7.5594,0 h 3.7796 v 3.77966 h -3.7796 z m 11.3389,0 h 3.7797 v 3.77966 h -3.7797 z m 7.5594,0 h 3.7796 v 3.77966 h -3.7796 z m 22.6779,0 h 3.7797 v 3.77966 h -3.7797 z m -105.8305,3.77966 h 3.7797 v 3.77966 h -3.7797 z m 3.7797,0 h 3.7796 v 3.77966 h -3.7796 z m 3.7796,0 h 3.7797 v 3.77966 h -3.7797 z m 3.7797,0 h 3.7797 v 3.77966 h -3.7797 z m 3.7797,0 h 3.7796 v 3.77966 h -3.7796 z m 3.7796,0 h 3.7797 v 3.77966 h -3.7797 z m 3.7797,0 h 3.7797 v 3.77966 h -3.7797 z m 7.5593,0 h 3.7797 v 3.77966 h -3.7797 z m 7.5593,0 h 3.7797 v 3.77966 h -3.7797 z m 7.5594,0 h 3.7796 v 3.77966 h -3.7796 z m 7.5593,0 h 3.7796 v 3.77966 h -3.7796 z m 7.5593,0 h 3.7797 v 3.77966 h -3.7797 z m 7.5593,0 h 3.7797 v 3.77966 h -3.7797 z m 7.5593,0 h 3.7797 v 3.77966 h -3.7797 z m 7.5594,0 h 3.7796 v 3.77966 h -3.7796 z m 3.7796,0 h 3.7797 v 3.77966 h -3.7797 z m 3.7797,0 h 3.7797 v 3.77966 h -3.7797 z m 3.7797,0 h 3.7796 v 3.77966 h -3.7796 z m 3.7796,0 h 3.7797 v 3.77966 h -3.7797 z m 3.7797,0 h 3.7796 v 3.77966 h -3.7796 z m 3.7796,0 h 3.7797 v 3.77966 h -3.7797 z m -75.5932,3.77966 h 3.7797 v 3.77966 h -3.7797 z m 3.7797,0 h 3.7796 v 3.77966 h -3.7796 z m 11.339,0 h 3.7796 v 3.77966 h -3.7796 z m 7.5593,0 h 3.7796 v 3.77966 h -3.7796 z m 3.7796,0 h 3.7797 v 3.77966 h -3.7797 z m 3.7797,0 h 3.7797 v 3.77966 h -3.7797 z m 7.5593,0 h 3.7797 v 3.77966 h -3.7797 z m 3.7797,0 h 3.7796 v 3.77966 h -3.7796 z m 3.7796,0 h 3.7797 v 3.77966 h -3.7797 z m -75.5932,3.77966 h 3.7797 v 3.77966 h -3.7797 z m 7.5593,0 h 3.7797 v 3.77966 h -3.7797 z m 3.7797,0 h 3.7797 v 3.77966 h -3.7797 z m 3.7797,0 h 3.7796 v 3.77966 h -3.7796 z m 3.7796,0 h 3.7797 v 3.77966 h -3.7797 z m 3.7797,0 h 3.7797 v 3.77966 h -3.7797 z m 15.1186,0 h 3.7797 v 3.77966 h -3.7797 z m 3.7797,0 h 3.7797 v 3.77966 h -3.7797 z m 7.5593,0 h 3.7797 v 3.77966 h -3.7797 z m 3.7797,0 h 3.7796 v 3.77966 h -3.7796 z m 3.7796,0 h 3.7797 v 3.77966 h -3.7797 z m 7.5594,0 h 3.7796 v 3.77966 h -3.7796 z m 7.5593,0 h 3.7796 v 3.77966 h -3.7796 z m 11.339,0 h 3.7796 v 3.77966 h -3.7796 z m 3.7796,0 h 3.7797 v 3.77966 h -3.7797 z m 3.7797,0 h 3.7797 v 3.77966 h -3.7797 z m 3.7797,0 h 3.7796 v 3.77966 h -3.7796 z m 3.7796,0 h 3.7797 v 3.77966 h -3.7797 z m -90.7119,3.77966 h 3.7797 v 3.77966 h -3.7797 z m 11.339,0 h 3.7797 v 3.77966 h -3.7797 z m 26.4577,0 h 3.7796 v 3.77966 h -3.7796 z m 15.1186,0 h 3.7797 v 3.77966 h -3.7797 z m 7.5593,0 h 3.7797 v 3.77966 h -3.7797 z m 3.7797,0 h 3.7796 v 3.77966 h -3.7796 z m 11.339,0 h 3.7796 v 3.77966 h -3.7796 z m 3.7796,0 h 3.7797 v 3.77966 h -3.7797 z m 3.7797,0 h 3.7797 v 3.77966 h -3.7797 z m 15.1186,0 h 3.7797 v 3.77966 h -3.7797 z m -105.8305,3.77966 h 3.7797 v 3.77966 h -3.7797 z m 7.5593,0 h 3.7797 v 3.77966 h -3.7797 z m 3.7797,0 h 3.7797 v 3.77966 h -3.7797 z m 3.7797,0 h 3.7796 v 3.77966 h -3.7796 z m 7.5593,0 h 3.7797 v 3.77966 h -3.7797 z m 3.7797,0 h 3.7796 v 3.77966 h -3.7796 z m 3.7796,0 h 3.7797 v 3.77966 h -3.7797 z m 3.7797,0 h 3.7796 v 3.77966 h -3.7796 z m 3.7796,0 h 3.7797 v 3.77966 h -3.7797 z m 3.7797,0 h 3.7797 v 3.77966 h -3.7797 z m 3.7797,0 h 3.7796 v 3.77966 h -3.7796 z m 7.5593,0 h 3.7796 v 3.77966 h -3.7796 z m 3.7796,0 h 3.7797 v 3.77966 h -3.7797 z m 3.7797,0 h 3.7797 v 3.77966 h -3.7797 z m 15.1186,0 h 3.7797 v 3.77966 h -3.7797 z m -68.0339,3.77966 h 3.7797 v 3.77966 h -3.7797 z m 3.7797,0 h 3.7797 v 3.77966 h -3.7797 z m 3.7797,0 h 3.7796 v 3.77966 h -3.7796 z m 3.7796,0 h 3.7797 v 3.77966 h -3.7797 z m 7.5594,0 h 3.7796 v 3.77966 h -3.7796 z m 7.5593,0 h 3.7796 v 3.77966 h -3.7796 z m 11.339,0 h 3.7796 v 3.77966 h -3.7796 z m 7.5593,0 h 3.7796 v 3.77966 h -3.7796 z m 3.7796,0 h 3.7797 v 3.77966 h -3.7797 z m 3.7797,0 h 3.7797 v 3.77966 h -3.7797 z m 7.5593,0 h 3.7797 v 3.77966 h -3.7797 z m 3.7797,0 h 3.7796 v 3.77966 h -3.7796 z m 11.339,0 h 3.7796 v 3.77966 h -3.7796 z m 3.7796,0 h 3.7797 v 3.77966 h -3.7797 z m 7.5594,0 h 3.7796 v 3.77966 h -3.7796 z m 7.5593,0 h 3.7796 v 3.77966 h -3.7796 z m -98.2712,3.77966 h 3.7796 v 3.77967 h -3.7796 z m 18.8983,0 h 3.7797 v 3.77967 h -3.7797 z m 3.7797,0 h 3.7796 v 3.77967 h -3.7796 z m 3.7796,0 h 3.7797 v 3.77967 h -3.7797 z m 3.7797,0 h 3.7796 v 3.77967 h -3.7796 z m 3.7796,0 h 3.7797 v 3.77967 h -3.7797 z m 3.7797,0 h 3.7797 v 3.77967 h -3.7797 z m 7.5593,0 h 3.7797 v 3.77967 h -3.7797 z m 3.7797,0 h 3.7796 v 3.77967 h -3.7796 z m 11.339,0 h 3.7796 v 3.77967 h -3.7796 z m 11.3389,0 h 3.7797 v 3.77967 h -3.7797 z m 18.8984,0 h 3.7796 v 3.77967 h -3.7796 z m 3.7796,0 h 3.7797 v 3.77967 h -3.7797 z m -98.2712,3.77967 h 3.7797 v 3.77966 h -3.7797 z m 7.5593,0 h 3.7797 v 3.77966 h -3.7797 z m 11.339,0 h 3.7797 v 3.77966 h -3.7797 z m 7.5594,0 h 3.7796 v 3.77966 h -3.7796 z m 3.7796,0 h 3.7797 v 3.77966 h -3.7797 z m 3.7797,0 h 3.7796 v 3.77966 h -3.7796 z m 3.7796,0 h 3.7797 v 3.77966 h -3.7797 z m 11.339,0 h 3.7797 v 3.77966 h -3.7797 z m 18.8983,0 h 3.7797 v 3.77966 h -3.7797 z m 3.7797,0 h 3.7796 v 3.77966 h -3.7796 z m 3.7796,0 h 3.7797 v 3.77966 h -3.7797 z m 7.5594,0 h 3.7796 v 3.77966 h -3.7796 z m 7.5593,0 h 3.7797 v 3.77966 h -3.7797 z m 15.1186,0 h 3.7797 v 3.77966 h -3.7797 z m -105.8305,3.77966 h 3.7797 v 3.77966 h -3.7797 z m 3.7797,0 h 3.7796 v 3.77966 h -3.7796 z m 3.7796,0 h 3.7797 v 3.77966 h -3.7797 z m 3.7797,0 h 3.7797 v 3.77966 h -3.7797 z m 3.7797,0 h 3.7796 v 3.77966 h -3.7796 z m 7.5593,0 h 3.7797 v 3.77966 h -3.7797 z m 3.7797,0 h 3.7796 v 3.77966 h -3.7796 z m 3.7796,0 h 3.7797 v 3.77966 h -3.7797 z m 11.339,0 h 3.7797 v 3.77966 h -3.7797 z m 7.5593,0 h 3.7797 v 3.77966 h -3.7797 z m 3.7797,0 h 3.7796 v 3.77966 h -3.7796 z m 3.7796,0 h 3.7797 v 3.77966 h -3.7797 z m 18.8983,0 h 3.7797 v 3.77966 h -3.7797 z m 15.1187,0 h 3.7797 v 3.77966 h -3.7797 z m 3.7797,0 h 3.7796 v 3.77966 h -3.7796 z m 3.7796,0 h 3.7797 v 3.77966 h -3.7797 z m -98.2712,3.77966 h 3.7797 v 3.77966 h -3.7797 z m 7.5593,0 h 3.7797 v 3.77966 h -3.7797 z m 3.7797,0 h 3.7797 v 3.77966 h -3.7797 z m 3.7797,0 h 3.7796 v 3.77966 h -3.7796 z m 3.7796,0 h 3.7797 v 3.77966 h -3.7797 z m 11.339,0 h 3.7797 v 3.77966 h -3.7797 z m 3.7797,0 h 3.7796 v 3.77966 h -3.7796 z m 3.7796,0 h 3.7797 v 3.77966 h -3.7797 z m 3.7797,0 h 3.7797 v 3.77966 h -3.7797 z m 3.7797,0 h 3.7796 v 3.77966 h -3.7796 z m 11.3389,0 h 3.7797 v 3.77966 h -3.7797 z m 15.1187,0 h 3.7796 v 3.77966 h -3.7796 z m 3.7796,0 h 3.7797 v 3.77966 h -3.7797 z m 3.7797,0 h 3.7797 v 3.77966 h -3.7797 z m 22.678,0 h 3.7796 v 3.77966 h -3.7796 z m -102.0509,3.77966 h 3.7797 v 3.77966 h -3.7797 z m 7.5593,0 h 3.7797 v 3.77966 h -3.7797 z m 7.5594,0 h 3.7796 v 3.77966 h -3.7796 z m 7.5593,0 h 3.7797 v 3.77966 h -3.7797 z m 7.5593,0 h 3.7797 v 3.77966 h -3.7797 z m 7.5593,0 h 3.7797 v 3.77966 h -3.7797 z m 3.7797,0 h 3.7797 v 3.77966 h -3.7797 z m 3.7797,0 h 3.7796 v 3.77966 h -3.7796 z m 3.7796,0 h 3.7797 v 3.77966 h -3.7797 z m 3.7797,0 h 3.7796 v 3.77966 h -3.7796 z m 3.7796,0 h 3.7797 v 3.77966 h -3.7797 z m 3.7797,0 h 3.7797 v 3.77966 h -3.7797 z m 3.7797,0 h 3.7796 v 3.77966 h -3.7796 z m 22.6779,0 h 3.7797 v 3.77966 h -3.7797 z m 7.5594,0 h 3.7796 v 3.77966 h -3.7796 z m 3.7796,0 h 3.7797 v 3.77966 h -3.7797 z m -98.2712,3.77966 h 3.7797 v 3.77966 h -3.7797 z m 11.339,0 h 3.7797 v 3.77966 h -3.7797 z m 18.8983,0 h 3.7797 v 3.77966 h -3.7797 z m 3.7797,0 h 3.7796 v 3.77966 h -3.7796 z m 11.339,0 h 3.7796 v 3.77966 h -3.7796 z m 7.5593,0 h 3.7796 v 3.77966 h -3.7796 z m 18.8983,0 h 3.7796 v 3.77966 h -3.7796 z m 3.7796,0 h 3.7797 v 3.77966 h -3.7797 z m 3.7797,0 h 3.7797 v 3.77966 h -3.7797 z m 3.7797,0 h 3.7796 v 3.77966 h -3.7796 z m 3.7796,0 h 3.7797 v 3.77966 h -3.7797 z m 3.7797,0 h 3.7797 v 3.77966 h -3.7797 z m 7.5593,0 h 3.7797 v 3.77966 h -3.7797 z m 7.5593,0 h 3.7797 v 3.77966 h -3.7797 z m -105.8305,3.77966 h 3.7797 v 3.77966 h -3.7797 z m 11.339,0 h 3.7797 v 3.77966 h -3.7797 z m 11.339,0 h 3.7797 v 3.77966 h -3.7797 z m 3.7797,0 h 3.7796 v 3.77966 h -3.7796 z m 3.7796,0 h 3.7797 v 3.77966 h -3.7797 z m 3.7797,0 h 3.7796 v 3.77966 h -3.7796 z m 7.5593,0 h 3.7797 v 3.77966 h -3.7797 z m 3.7797,0 h 3.7796 v 3.77966 h -3.7796 z m 7.5593,0 h 3.7796 v 3.77966 h -3.7796 z m 3.7796,0 h 3.7797 v 3.77966 h -3.7797 z m 7.5594,0 h 3.7796 v 3.77966 h -3.7796 z m 3.7796,0 h 3.7797 v 3.77966 h -3.7797 z m 7.5593,0 h 3.7797 v 3.77966 h -3.7797 z m 11.339,0 h 3.7797 v 3.77966 h -3.7797 z m 11.339,0 h 3.7797 v 3.77966 h -3.7797 z m -98.2712,3.77966 h 3.7797 v 3.77966 h -3.7797 z m 11.339,0 h 3.7797 v 3.77966 h -3.7797 z m 3.7797,0 h 3.7796 v 3.77966 h -3.7796 z m 11.339,0 h 3.7796 v 3.77966 h -3.7796 z m 3.7796,0 h 3.7797 v 3.77966 h -3.7797 z m 7.5593,0 h 3.7797 v 3.77966 h -3.7797 z m 18.8983,0 h 3.7797 v 3.77966 h -3.7797 z m 11.339,0 h 3.7797 v 3.77966 h -3.7797 z m 7.5593,0 h 3.7797 v 3.77966 h -3.7797 z m 3.7797,0 h 3.7797 v 3.77966 h -3.7797 z m 3.7797,0 h 3.7796 v 3.77966 h -3.7796 z m 3.7796,0 h 3.7797 v 3.77966 h -3.7797 z m 15.1187,0 h 3.7796 v 3.77966 h -3.7796 z m -102.0509,3.77966 h 3.7797 v 3.77966 h -3.7797 z m 7.5593,0 h 3.7797 v 3.77966 h -3.7797 z m 3.7797,0 h 3.7797 v 3.77966 h -3.7797 z m 11.339,0 h 3.7797 v 3.77966 h -3.7797 z m 7.5593,0 h 3.7797 v 3.77966 h -3.7797 z m 3.7797,0 h 3.7796 v 3.77966 h -3.7796 z m 7.5593,0 h 3.7797 v 3.77966 h -3.7797 z m 3.7797,0 h 3.7796 v 3.77966 h -3.7796 z m 11.3389,0 h 3.7797 v 3.77966 h -3.7797 z m 3.7797,0 h 3.7797 v 3.77966 h -3.7797 z m 3.7797,0 h 3.7796 v 3.77966 h -3.7796 z m 7.5593,0 h 3.7796 v 3.77966 h -3.7796 z m 3.7796,0 h 3.7797 v 3.77966 h -3.7797 z m 3.7797,0 h 3.7797 v 3.77966 h -3.7797 z m 3.7797,0 h 3.7796 v 3.77966 h -3.7796 z m 3.7796,0 h 3.7797 v 3.77966 h -3.7797 z m 3.7797,0 h 3.7797 v 3.77966 h -3.7797 z m 7.5593,0 h 3.7797 v 3.77966 h -3.7797 z m 3.7797,0 h 3.7796 v 3.77966 h -3.7796 z m 3.7796,0 h 3.7797 v 3.77966 h -3.7797 z m -75.5932,3.77966 h 3.7797 v 3.77967 h -3.7797 z m 7.5593,0 h 3.7797 v 3.77967 h -3.7797 z m 3.7797,0 h 3.7797 v 3.77967 h -3.7797 z m 3.7797,0 h 3.7796 v 3.77967 h -3.7796 z m 3.7796,0 h 3.7797 v 3.77967 h -3.7797 z m 26.4576,0 h 3.7797 v 3.77967 h -3.7797 z m 15.1187,0 h 3.7797 v 3.77967 h -3.7797 z m 3.7797,0 h 3.7796 v 3.77967 h -3.7796 z m 3.7796,0 h 3.7797 v 3.77967 h -3.7797 z m 3.7797,0 h 3.7796 v 3.77967 h -3.7796 z m 3.7796,0 h 3.7797 v 3.77967 h -3.7797 z m -105.8305,3.77967 h 3.7797 v 3.77966 h -3.7797 z m 3.7797,0 h 3.7796 v 3.77966 h -3.7796 z m 3.7796,0 h 3.7797 v 3.77966 h -3.7797 z m 3.7797,0 h 3.7797 v 3.77966 h -3.7797 z m 3.7797,0 h 3.7796 v 3.77966 h -3.7796 z m 3.7796,0 h 3.7797 v 3.77966 h -3.7797 z m 3.7797,0 h 3.7797 v 3.77966 h -3.7797 z m 11.339,0 h 3.7796 v 3.77966 h -3.7796 z m 7.5593,0 h 3.7797 v 3.77966 h -3.7797 z m 3.7797,0 h 3.7796 v 3.77966 h -3.7796 z m 3.7796,0 h 3.7797 v 3.77966 h -3.7797 z m 3.7797,0 h 3.7796 v 3.77966 h -3.7796 z m 3.7796,0 h 3.7797 v 3.77966 h -3.7797 z m 7.5594,0 h 3.7796 v 3.77966 h -3.7796 z m 3.7796,0 h 3.7797 v 3.77966 h -3.7797 z m 3.7797,0 h 3.7796 v 3.77966 h -3.7796 z m 3.7796,0 h 3.7797 v 3.77966 h -3.7797 z m 7.5594,0 h 3.7796 v 3.77966 h -3.7796 z m 7.5593,0 h 3.7797 v 3.77966 h -3.7797 z m 3.7797,0 h 3.7796 v 3.77966 h -3.7796 z m 3.7796,0 h 3.7797 v 3.77966 h -3.7797 z m -98.2712,3.77966 h 3.7797 v 3.77966 h -3.7797 z m 22.678,0 h 3.7797 v 3.77966 h -3.7797 z m 7.5593,0 h 3.7797 v 3.77966 h -3.7797 z m 7.5593,0 h 3.7797 v 3.77966 h -3.7797 z m 11.339,0 h 3.7797 v 3.77966 h -3.7797 z m 7.5593,0 h 3.7797 v 3.77966 h -3.7797 z m 15.1187,0 h 3.7796 v 3.77966 h -3.7796 z m 3.7796,0 h 3.7797 v 3.77966 h -3.7797 z m 15.1187,0 h 3.7797 v 3.77966 h -3.7797 z m -90.7119,3.77966 h 3.7797 v 3.77966 h -3.7797 z m 7.5593,0 h 3.7797 v 3.77966 h -3.7797 z m 3.7797,0 h 3.7797 v 3.77966 h -3.7797 z m 3.7797,0 h 3.7796 v 3.77966 h -3.7796 z m 7.5593,0 h 3.7797 v 3.77966 h -3.7797 z m 7.5593,0 h 3.7797 v 3.77966 h -3.7797 z m 7.5593,0 h 3.7797 v 3.77966 h -3.7797 z m 3.7797,0 h 3.7797 v 3.77966 h -3.7797 z m 3.7797,0 h 3.7796 v 3.77966 h -3.7796 z m 7.5593,0 h 3.7796 v 3.77966 h -3.7796 z m 3.7796,0 h 3.7797 v 3.77966 h -3.7797 z m 3.7797,0 h 3.7797 v 3.77966 h -3.7797 z m 3.7797,0 h 3.7796 v 3.77966 h -3.7796 z m 3.7796,0 h 3.7797 v 3.77966 h -3.7797 z m 7.5593,0 h 3.7797 v 3.77966 h -3.7797 z m 3.7797,0 h 3.7797 v 3.77966 h -3.7797 z m 3.7797,0 h 3.7796 v 3.77966 h -3.7796 z m 3.7796,0 h 3.7797 v 3.77966 h -3.7797 z m 3.7797,0 h 3.7797 v 3.77966 h -3.7797 z m 7.5593,0 h 3.7797 v 3.77966 h -3.7797 z m 3.7797,0 h 3.7796 v 3.77966 h -3.7796 z m 3.7796,0 h 3.7797 v 3.77966 h -3.7797 z m -105.8305,3.77966 h 3.7797 v 3.77966 h -3.7797 z m 7.5593,0 h 3.7797 v 3.77966 h -3.7797 z m 3.7797,0 h 3.7797 v 3.77966 h -3.7797 z m 3.7797,0 h 3.7796 v 3.77966 h -3.7796 z m 7.5593,0 h 3.7797 v 3.77966 h -3.7797 z m 7.5593,0 h 3.7797 v 3.77966 h -3.7797 z m 7.5593,0 h 3.7797 v 3.77966 h -3.7797 z m 3.7797,0 h 3.7797 v 3.77966 h -3.7797 z m 22.678,0 h 3.7796 v 3.77966 h -3.7796 z m 3.7796,0 h 3.7797 v 3.77966 h -3.7797 z m 3.7797,0 h 3.7796 v 3.77966 h -3.7796 z m 7.5593,0 h 3.7797 v 3.77966 h -3.7797 z m 15.1187,0 h 3.7796 v 3.77966 h -3.7796 z m 3.7796,0 h 3.7797 v 3.77966 h -3.7797 z m 3.7797,0 h 3.7796 v 3.77966 h -3.7796 z m 3.7796,0 h 3.7797 v 3.77966 h -3.7797 z m -105.8305,3.77966 h 3.7797 v 3.77966 h -3.7797 z m 7.5593,0 h 3.7797 v 3.77966 h -3.7797 z m 3.7797,0 h 3.7797 v 3.77966 h -3.7797 z m 3.7797,0 h 3.7796 v 3.77966 h -3.7796 z m 7.5593,0 h 3.7797 v 3.77966 h -3.7797 z m 7.5593,0 h 3.7797 v 3.77966 h -3.7797 z m 3.7797,0 h 3.7796 v 3.77966 h -3.7796 z m 7.5593,0 h 3.7797 v 3.77966 h -3.7797 z m 7.5593,0 h 3.7797 v 3.77966 h -3.7797 z m 7.5593,0 h 3.7797 v 3.77966 h -3.7797 z m 7.5594,0 h 3.7796 v 3.77966 h -3.7796 z m 11.3389,0 h 3.7797 v 3.77966 h -3.7797 z m 3.7797,0 h 3.7797 v 3.77966 h -3.7797 z m 3.7797,0 h 3.7796 v 3.77966 h -3.7796 z m 3.7796,0 h 3.7797 v 3.77966 h -3.7797 z m 3.7797,0 h 3.7797 v 3.77966 h -3.7797 z m 3.7797,0 h 3.7796 v 3.77966 h -3.7796 z m 3.7796,0 h 3.7797 v 3.77966 h -3.7797 z m 3.7797,0 h 3.7796 v 3.77966 h -3.7796 z m -102.0509,3.77966 h 3.7797 v 3.77966 h -3.7797 z m 22.678,0 h 3.7797 v 3.77966 h -3.7797 z m 11.339,0 h 3.7796 v 3.77966 h -3.7796 z m 3.7796,0 h 3.7797 v 3.77966 h -3.7797 z m 3.7797,0 h 3.7797 v 3.77966 h -3.7797 z m 7.5593,0 h 3.7797 v 3.77966 h -3.7797 z m 3.7797,0 h 3.7796 v 3.77966 h -3.7796 z m 3.7796,0 h 3.7797 v 3.77966 h -3.7797 z m 18.8983,0 h 3.7797 v 3.77966 h -3.7797 z m 7.5594,0 h 3.7796 v 3.77966 h -3.7796 z m 7.5593,0 h 3.7797 v 3.77966 h -3.7797 z m 3.7797,0 h 3.7796 v 3.77966 h -3.7796 z m 7.5593,0 h 3.7796 v 3.77966 h -3.7796 z m -102.0509,3.77966 h 3.7797 v 3.77966 h -3.7797 z m 3.7797,0 h 3.7796 v 3.77966 h -3.7796 z m 3.7796,0 h 3.7797 v 3.77966 h -3.7797 z m 3.7797,0 h 3.7797 v 3.77966 h -3.7797 z m 3.7797,0 h 3.7796 v 3.77966 h -3.7796 z m 3.7796,0 h 3.7797 v 3.77966 h -3.7797 z m 3.7797,0 h 3.7797 v 3.77966 h -3.7797 z m 7.5593,0 h 3.7797 v 3.77966 h -3.7797 z m 3.7797,0 h 3.7796 v 3.77966 h -3.7796 z m 11.339,0 h 3.7796 v 3.77966 h -3.7796 z m 3.7796,0 h 3.7797 v 3.77966 h -3.7797 z m 7.5593,0 h 3.7797 v 3.77966 h -3.7797 z m 3.7797,0 h 3.7797 v 3.77966 h -3.7797 z m 3.7797,0 h 3.7796 v 3.77966 h -3.7796 z m 3.7796,0 h 3.7797 v 3.77966 h -3.7797 z m 3.7797,0 h 3.7796 v 3.77966 h -3.7796 z m 11.339,0 h 3.7796 v 3.77966 h -3.7796 z m 3.7796,0 h 3.7797 v 3.77966 h -3.7797 z m 3.7797,0 h 3.7797 v 3.77966 h -3.7797 z m 3.7797,0 h 3.7796 v 3.77966 h -3.7796 z m 3.7796,0 h 3.7797 v 3.77966 h -3.7797 z"
         fill="#000000"
         id="path1-9-5"
         style="display:inline;stroke:none;stroke-width:3.77966" /></g></g></svg>
